<mxGraphModel dx="0" dy="0" grid="1" gridSize="10" guides="1" tooltips="1" connect="1" arrows="1" fold="1" page="0" pageScale="1" background="none" math="0" shadow="0">
  <root>
    <mxCell id="0" />
    <mxCell id="1" parent="0" />
    <mxCell id="node3" parent="1" vertex="1" value="&lt;p style=&quot;margin:0px;margin-top:4px;text-align:center;&quot;&gt;&lt;b&gt;ServiceRequest&lt;/b&gt;&lt;/p&gt;&lt;hr size=&quot;1&quot;/&gt;&lt;p style=&quot;margin:0 0 0 4px;line-height:1.6;&quot;&gt;+ ServiceRequest(): &lt;/p&gt;&lt;hr size=&quot;1&quot;/&gt;&lt;p style=&quot;margin:0 0 0 4px;line-height:1.6;&quot;&gt;- servicePersonnel: String&lt;br/&gt;- details: String&lt;br/&gt;- serialVersionUID: long&lt;br/&gt;- serviceType: Integer&lt;br/&gt;- serviceTime: LocalDateTime&lt;br/&gt;- requestTime: LocalDateTime&lt;br/&gt;- status: Integer&lt;br/&gt;- elderlyId: Long&lt;br/&gt;- userName: String&lt;br/&gt;- requestId: Long&lt;/p&gt;&lt;hr size=&quot;1&quot;/&gt;&lt;p style=&quot;margin:0 0 0 4px;line-height:1.6;&quot;&gt;+ getServiceType(): Integer&lt;br/&gt;+ getRequestId(): Long&lt;br/&gt;+ setServicePersonnel(String): void&lt;br/&gt;+ getElderlyId(): Long&lt;br/&gt;+ setStatus(Integer): void&lt;br/&gt;+ toString(): String&lt;br/&gt;+ getUserName(): String&lt;br/&gt;+ setServiceType(Integer): void&lt;br/&gt;+ getRequestTime(): LocalDateTime&lt;br/&gt;+ setElderlyId(Long): void&lt;br/&gt;+ setDetails(String): void&lt;br/&gt;+ getStatus(): Integer&lt;br/&gt;+ setRequestId(Long): void&lt;br/&gt;+ setUserName(String): void&lt;br/&gt;+ setRequestTime(LocalDateTime): void&lt;br/&gt;+ setServiceTime(LocalDateTime): void&lt;br/&gt;+ getServiceTime(): LocalDateTime&lt;br/&gt;+ getServicePersonnel(): String&lt;br/&gt;+ getDetails(): String&lt;/p&gt;" style="verticalAlign=top;align=left;overflow=fill;fontSize=14;fontFamily=Helvetica;html=1;rounded=0;shadow=0;comic=0;labelBackgroundColor=none;strokeWidth=1;">
      <mxGeometry x="-610" y="454" width="263" height="761" as="geometry" />
    </mxCell>
    <mxCell id="node4" parent="1" vertex="1" value="&lt;p style=&quot;margin:0px;margin-top:4px;text-align:center;&quot;&gt;&lt;b&gt;ServiceRequestController&lt;/b&gt;&lt;/p&gt;&lt;hr size=&quot;1&quot;/&gt;&lt;p style=&quot;margin:0 0 0 4px;line-height:1.6;&quot;&gt;+ ServiceRequestController(ServiceRequestService): &lt;/p&gt;&lt;hr size=&quot;1&quot;/&gt;&lt;p style=&quot;margin:0 0 0 4px;line-height:1.6;&quot;&gt;- serviceRequestService: ServiceRequestService&lt;/p&gt;&lt;hr size=&quot;1&quot;/&gt;&lt;p style=&quot;margin:0 0 0 4px;line-height:1.6;&quot;&gt;+ addServiceRequest(ServiceRequest): AjaxResult&lt;br/&gt;+ listAllServiceRequests(): TableDataInfo&lt;br/&gt;+ updateServiceRequest(ServiceRequest): AjaxResult&lt;br/&gt;+ getServiceRequestById(Long): AjaxResult&lt;br/&gt;+ updateServiceDetails(ServiceRequest): AjaxResult&lt;br/&gt;+ updateStatus(ServiceRequest): AjaxResult&lt;br/&gt;+ deleteServiceRequest(Long): AjaxResult&lt;/p&gt;" style="verticalAlign=top;align=left;overflow=fill;fontSize=14;fontFamily=Helvetica;html=1;rounded=0;shadow=0;comic=0;labelBackgroundColor=none;strokeWidth=1;">
      <mxGeometry x="-266" y="1092" width="337" height="257" as="geometry" />
    </mxCell>
    <mxCell id="node2" parent="1" vertex="1" value="&lt;p style=&quot;margin:0px;margin-top:4px;text-align:center;&quot;&gt;&lt;i&gt;&amp;lt;&amp;lt;interface&amp;gt;&amp;gt;&lt;/i&gt;&lt;br/&gt;&lt;b&gt;ServiceRequestMapper&lt;/b&gt;&lt;/p&gt;&lt;hr size=&quot;1&quot;/&gt;&lt;p style=&quot;margin:0 0 0 4px;line-height:1.6;&quot;&gt;+ getServiceRequestById(Long): ServiceRequest&lt;br/&gt;+ getAllServiceRequests(): List&amp;lt;ServiceRequest&amp;gt;&lt;br/&gt;+ deleteServiceRequest(Long): int&lt;br/&gt;+ updateServiceDetails(ServiceRequest): int&lt;br/&gt;+ updateServiceRequest(ServiceRequest): int&lt;br/&gt;+ getServiceRequestsByElderlyId(Long): List&amp;lt;ServiceRequest&amp;gt;&lt;br/&gt;+ addServiceRequest(ServiceRequest): int&lt;br/&gt;+ updateStatus(ServiceRequest): int&lt;/p&gt;" style="verticalAlign=top;align=left;overflow=fill;fontSize=14;fontFamily=Helvetica;html=1;rounded=0;shadow=0;comic=0;labelBackgroundColor=none;strokeWidth=1;">
      <mxGeometry x="126" y="485" width="392" height="231" as="geometry" />
    </mxCell>
    <mxCell id="node0" parent="1" vertex="1" value="&lt;p style=&quot;margin:0px;margin-top:4px;text-align:center;&quot;&gt;&lt;i&gt;&amp;lt;&amp;lt;interface&amp;gt;&amp;gt;&lt;/i&gt;&lt;br/&gt;&lt;b&gt;ServiceRequestService&lt;/b&gt;&lt;/p&gt;&lt;hr size=&quot;1&quot;/&gt;&lt;p style=&quot;margin:0 0 0 4px;line-height:1.6;&quot;&gt;+ getAllServiceRequests(): List&amp;lt;ServiceRequest&amp;gt;&lt;br/&gt;+ getServiceRequestById(Long): ServiceRequest&lt;br/&gt;+ updateStatus(ServiceRequest): boolean&lt;br/&gt;+ deleteServiceRequest(Long): boolean&lt;br/&gt;+ updateServiceDetails(ServiceRequest): boolean&lt;br/&gt;+ updateServiceRequest(ServiceRequest): boolean&lt;br/&gt;+ addServiceRequest(ServiceRequest): boolean&lt;/p&gt;" style="verticalAlign=top;align=left;overflow=fill;fontSize=14;fontFamily=Helvetica;html=1;rounded=0;shadow=0;comic=0;labelBackgroundColor=none;strokeWidth=1;">
      <mxGeometry x="-240" y="737" width="324" height="207" as="geometry" />
    </mxCell>
    <mxCell id="node1" parent="1" vertex="1" value="&lt;p style=&quot;margin:0px;margin-top:4px;text-align:center;&quot;&gt;&lt;b&gt;ServiceRequestServiceImpl&lt;/b&gt;&lt;/p&gt;&lt;hr size=&quot;1&quot;/&gt;&lt;p style=&quot;margin:0 0 0 4px;line-height:1.6;&quot;&gt;+ ServiceRequestServiceImpl(ServiceRequestMapper, ISysUserService, ISysRoleService): &lt;/p&gt;&lt;hr size=&quot;1&quot;/&gt;&lt;p style=&quot;margin:0 0 0 4px;line-height:1.6;&quot;&gt;- serviceRequestMapper: ServiceRequestMapper&lt;br/&gt;- iSysUserService: ISysUserService&lt;br/&gt;- iSysRoleService: ISysRoleService&lt;/p&gt;&lt;hr size=&quot;1&quot;/&gt;&lt;p style=&quot;margin:0 0 0 4px;line-height:1.6;&quot;&gt;- fillUserName(List&amp;lt;ServiceRequest&amp;gt;): void&lt;br/&gt;+ updateStatus(ServiceRequest): boolean&lt;br/&gt;+ addServiceRequest(ServiceRequest): boolean&lt;br/&gt;+ getAllServiceRequests(): List&amp;lt;ServiceRequest&amp;gt;&lt;br/&gt;+ deleteServiceRequest(Long): boolean&lt;br/&gt;+ updateServiceDetails(ServiceRequest): boolean&lt;br/&gt;+ updateServiceRequest(ServiceRequest): boolean&lt;br/&gt;+ getServiceRequestById(Long): ServiceRequest&lt;/p&gt;" style="verticalAlign=top;align=left;overflow=fill;fontSize=14;fontFamily=Helvetica;html=1;rounded=0;shadow=0;comic=0;labelBackgroundColor=none;strokeWidth=1;">
      <mxGeometry x="104" y="1056" width="397" height="329" as="geometry" />
    </mxCell>
    <mxCell id="edge5" edge="1" value="" parent="1" source="node4" target="node3" style="html=1;rounded=1;edgeStyle=orthogonalEdgeStyle;dashed=1;startArrow=none;endArrow=openThin;endSize=12;strokeColor=#595959;exitX=0.250;exitY=0.000;exitDx=0;exitDy=0;entryX=1.000;entryY=0.009;entryDx=0;entryDy=0;">
      <mxGeometry width="50" height="50" relative="1" as="geometry">
        <Array as="points">
          <mxPoint x="-182" y="1060" />
          <mxPoint x="-258" y="1060" />
          <mxPoint x="-258" y="460" />
        </Array>
      </mxGeometry>
    </mxCell>
    <mxCell id="edge2" edge="1" value="" parent="1" source="node4" target="node0" style="html=1;rounded=1;edgeStyle=orthogonalEdgeStyle;dashed=0;startArrow=diamondThinstartSize=12;endArrow=openThin;endSize=12;strokeColor=#595959;exitX=0.750;exitY=0.000;exitDx=0;exitDy=0;entryX=0.250;entryY=1.000;entryDx=0;entryDy=0;">
      <mxGeometry width="50" height="50" relative="1" as="geometry">
        <Array as="points">
          <mxPoint x="-14" y="1060" />
          <mxPoint x="-159" y="1060" />
        </Array>
      </mxGeometry>
    </mxCell>
    <mxCell id="label12" parent="edge2" vertex="1" connectable="0" value="1" style="edgeLabel;resizable=0;html=1;align=left;verticalAlign=top;strokeColor=default;">
      <mxGeometry x="-25" y="1066" as="geometry" />
    </mxCell>
    <mxCell id="label16" parent="edge2" vertex="1" connectable="0" value="1" style="edgeLabel;resizable=0;html=1;align=left;verticalAlign=top;strokeColor=default;">
      <mxGeometry x="-170" y="949" as="geometry" />
    </mxCell>
    <mxCell id="label17" parent="edge2" vertex="1" connectable="0" value="serviceRequestService" style="edgeLabel;resizable=0;html=1;align=left;verticalAlign=top;strokeColor=default;">
      <mxGeometry x="-159" y="949" as="geometry" />
    </mxCell>
    <mxCell id="edge1" edge="1" value="" parent="1" source="node2" target="node3" style="html=1;rounded=1;edgeStyle=orthogonalEdgeStyle;dashed=1;startArrow=none;endArrow=openThin;endSize=12;strokeColor=#595959;exitX=0.500;exitY=0.000;exitDx=0;exitDy=0;entryX=1.000;entryY=0.009;entryDx=0;entryDy=0;">
      <mxGeometry width="50" height="50" relative="1" as="geometry">
        <Array as="points">
          <mxPoint x="322" y="460" />
        </Array>
      </mxGeometry>
    </mxCell>
    <mxCell id="edge3" edge="1" value="" parent="1" source="node0" target="node3" style="html=1;rounded=1;edgeStyle=orthogonalEdgeStyle;dashed=1;startArrow=none;endArrow=openThin;endSize=12;strokeColor=#595959;exitX=0.500;exitY=0.000;exitDx=0;exitDy=0;entryX=1.000;entryY=0.009;entryDx=0;entryDy=0;">
      <mxGeometry width="50" height="50" relative="1" as="geometry">
        <Array as="points">
          <mxPoint x="-78" y="460" />
        </Array>
      </mxGeometry>
    </mxCell>
    <mxCell id="edge4" edge="1" value="" parent="1" source="node1" target="node3" style="html=1;rounded=1;edgeStyle=orthogonalEdgeStyle;dashed=1;startArrow=none;endArrow=openThin;endSize=12;strokeColor=#595959;exitX=0.833;exitY=0.000;exitDx=0;exitDy=0;entryX=1.000;entryY=0.009;entryDx=0;entryDy=0;">
      <mxGeometry width="50" height="50" relative="1" as="geometry">
        <Array as="points">
          <mxPoint x="434" y="1020" />
          <mxPoint x="542" y="1020" />
          <mxPoint x="542" y="460" />
        </Array>
      </mxGeometry>
    </mxCell>
    <mxCell id="edge6" edge="1" value="" parent="1" source="node1" target="node2" style="html=1;rounded=1;edgeStyle=orthogonalEdgeStyle;dashed=0;startArrow=diamondThinstartSize=12;endArrow=openThin;endSize=12;strokeColor=#595959;exitX=0.500;exitY=0.000;exitDx=0;exitDy=0;entryX=0.500;entryY=1.000;entryDx=0;entryDy=0;">
      <mxGeometry width="50" height="50" relative="1" as="geometry">
        <Array as="points">
          <mxPoint x="302" y="1020" />
          <mxPoint x="322" y="1020" />
        </Array>
      </mxGeometry>
    </mxCell>
    <mxCell id="label36" parent="edge6" vertex="1" connectable="0" value="1" style="edgeLabel;resizable=0;html=1;align=left;verticalAlign=top;strokeColor=default;">
      <mxGeometry x="291" y="1028" as="geometry" />
    </mxCell>
    <mxCell id="label40" parent="edge6" vertex="1" connectable="0" value="1" style="edgeLabel;resizable=0;html=1;align=left;verticalAlign=top;strokeColor=default;">
      <mxGeometry x="311" y="721" as="geometry" />
    </mxCell>
    <mxCell id="label41" parent="edge6" vertex="1" connectable="0" value="serviceRequestMapper" style="edgeLabel;resizable=0;html=1;align=left;verticalAlign=top;strokeColor=default;">
      <mxGeometry x="322" y="721" as="geometry" />
    </mxCell>
    <mxCell id="edge0" edge="1" value="" parent="1" source="node1" target="node0" style="html=1;rounded=1;edgeStyle=orthogonalEdgeStyle;dashed=1;startArrow=none;endArrow=block;endSize=12;strokeColor=#008200;exitX=0.167;exitY=0.000;exitDx=0;exitDy=0;entryX=0.750;entryY=1.000;entryDx=0;entryDy=0;">
      <mxGeometry width="50" height="50" relative="1" as="geometry">
        <Array as="points">
          <mxPoint x="170" y="1020" />
          <mxPoint x="3" y="1020" />
        </Array>
      </mxGeometry>
    </mxCell>
  </root>
</mxGraphModel>